<svg width="48" height="48" viewBox="0 0 48 48" fill="none" xmlns="http://www.w3.org/2000/svg">
<path d="M14 36H9.75499C8.98013 36 8.49967 35.1568 8.8947 34.4902L21.037 14M14 36H38.245C39.0199 36 39.5003 35.1568 39.1053 34.4902L37.037 31M14 36L18.5 35.0233M14 36L19.7576 18M37.037 31L24.8603 10.4517C24.473 9.79814 23.527 9.79815 23.1397 10.4517L21.037 14M37.037 31L18.5 35.0233M37.037 31L33.7429 27.5M21.037 14L33.7429 27.5M21.037 14L19.7576 18M18.5 35.0233L22 33.2958M18.5 35.0233L19.4621 22M33.7429 27.5L22 33.2958M33.7429 27.5L30.0626 25M19.7576 18L30.0626 25M19.7576 18L19.4621 22M22 33.2958L24.2313 31M22 33.2958L20.1361 25M30.0626 25L24.2313 31M30.0626 25L27 24.1333M19.4621 22L27 24.1333M19.4621 22L20.1361 25M24.2313 31L27 24.1333M24.2313 31L20.1361 25M27 24.1333L20.1361 25" stroke="white"/>
</svg>
