<svg data-name="Layer 1" xmlns="http://www.w3.org/2000/svg" viewBox="0 0 48 48"><rect x="5.5" y="5.5" width="37" height="37" rx="4" ry="4" style="fill:none;stroke:#fff;stroke-linecap:round;stroke-linejoin:round;fill-opacity:0"/><circle class="q" cx="37.355" cy="17.389" r=".759" style="fill:#fff;stroke-width:1px"/><circle class="q" cx="34.573" cy="17.389" r=".759" style="fill:#fff;stroke-width:1px"/><path class="r" d="M17.457 27.996v-8.094h2.651a2.716 2.716 0 0 1 2.712 2.718 2.717 2.717 0 0 1-2.712 2.72h-2.651m2.651 0 2.648 2.654m-8.831-2.681h-3.587m-.888 2.681 2.682-8.094 2.681 8.094m13.959-4.047a2.023 2.023 0 1 1 0 4.047h-3.339V19.9h3.339c1.118 0 2.023.905 2.023 2.024a2.02 2.02 0 0 1-2.023 2.023m0 0h-3.339" style="fill:none;stroke:#fff;stroke-linecap:round;stroke-linejoin:round;stroke-width:1px"/><rect class="r" x="33.191" y="19.9" width="5.363" height="8.094" rx="2.65" ry="2.65" style="fill:none;stroke:#fff;stroke-linecap:round;stroke-linejoin:round;stroke-width:1px"/></svg>