<svg xmlns="http://www.w3.org/2000/svg" viewBox="0 0 48 48"><path style="stroke-linecap:round;stroke-linejoin:round;fill:none;fill-opacity:0;stroke:#fff" d="M8.536 34.029c-1.93-2.921-2.942-6.307-2.942-10.07 0-10.217 8.283-18.5 18.5-18.5 4.907 0 9.612 1.949 13.081 5.419a18.495 18.495 0 0 1 0 26.162 18.5 18.5 0 0 1-13.081 5.419 18.9 18.9 0 0 1-10.248-3.025c-1.476 1.213-3.052 1.961-4.7 2.335q-.683.155-1.389-.16-.703-.314-.535-1.443.33-2.215 1.149-4.329c.232-.598.361-1.125.165-1.808"/><path style="stroke-linecap:round;stroke-linejoin:round;fill:none;fill-opacity:0;stroke:#fff" d="M14.139 8.532q4.671 3.712 6.615 8.534 4.747.555 7.373 2.424-.732 1.97-4.495 4.747 2.828 1.894 3.535 4.393-2.096 2.424-6.11 1.818c-1.7 4.09-4.57 6.781-7.019 8.827"/><circle style="fill:none;fill-opacity:0;stroke:#fff" cx="15.443" cy="18.629" r="1.379"/><path style="fill:none;stroke-linecap:round;stroke-linejoin:round;stroke:#fff" d="M26.93 28.595q-3.982-.13-7.441-1.31c1.266-1.039 2.936-2.399 4.377-3.193"/><path style="fill:none;stroke:#fff" d="M20.771 16.9c.76 3.428-.098 7.672-1.298 10.475"/><path style="fill:none;stroke-linecap:round;stroke-linejoin:round;stroke:#fff" d="M21.114 30.454c-.735-.009-1.592-.08-2.059-.281q.186-1.102-.258-2.377c.229-.076.543-.359.772-.473"/></svg>