<?xml version="1.0" encoding="UTF-8"?><svg id="a" xmlns="http://www.w3.org/2000/svg" viewBox="0 0 48 48"><defs><style>.d{fill:none;stroke:#fff;stroke-linecap:round;stroke-linejoin:round;}</style></defs><path class="d" d="M17.4138,11.4906c-2.2668,5.2136-7.9337,14.6206.6234,19.7209-5.6669-1.1901-7.0836-1.5867-8.2737-5.8369.7367,4.3069,3.3435,8.047,3.3435,8.047-5.2311-2.5346-10.2645-11.3176-3.8267-25.0918"/><path class="d" d="M19.3406,34.7816c-2.8335-.34-7.8758-5.9531-7.8758-5.9531,3.3292,4.337,6.5724,7.7665,5.5524,12.9801"/><path class="d" d="M16.0516,33.0961c2.1513,4.8031,9.3447,7.5281,10.7055,7.1825,1.3388-.34,6.9703-4.6752,7.9266-10.3917.841-5.0276.4328-7.9347.3222-8.5624"/><path class="d" d="M14.0394,26.7843c.6472-1.3814,2.4961-7.7567,2.4961-7.7567.4463,4.654,5.249,8.3091,10.2854,8.9041-1.9772-4.3898.5738-10.7955.5738-10.7955,4.654,4.8027,12.6443,5.3127,16.0444,4.8877"/><path class="d" d="M36.8177,6.7377c4.5052,4.5264,3.5394,15.3863,3.5394,15.3863"/><path class="d" d="M36.8177,21.7301c2.6498,5.501,2.672,12.8536.9829,17.9725"/><path class="d" d="M36.9151,34.2858c.6588-3.6764.1874-9.6267-1.7126-11.9855"/><path class="d" d="M27.3947,17.1363c3.7189,5.1215,5.9928,5.7377,5.9928,5.7377"/><path class="d" d="M24.7557,31.8454c0,.32.088.688.088.688"/><path class="d" d="M23.8036,35.7736c1.2161.104,3.1121-.24,4.0962-.92"/><path class="d" d="M27.7493,25.0287c1.5159-2.0259,4.2644-2.0968,6.6728-1.105-1.0909,2.5501-2.1251,3.8818-5.4261,3.5843"/><path class="d" d="M16.1536,29.8234c2.2174.6012,3.5911-.4312,4.597-2.7263-1.105-1.5442-4.1935-2.5246-6.3044.4519"/><path class="d" d="M28.4305,24.3099c-.2564,1.1868.2478,2.6672,1.3997,3.2391"/><line class="d" x1="30.5528" y1="24.6032" x2="30.7334" y2="25.4249"/><line class="d" x1="18.8542" y1="27.3729" x2="18.5991" y2="26.4378"/><path class="d" d="M16.2149,25.983c-.2721,1.7512.9628,3.7452,1.8223,3.9276"/><circle id="c" class="d" cx="24" cy="24" r="21.5"/><path class="d" d="M22.3932,38.9826c.476,2.1319-2.8863,6.0469-2.8863,6.0469"/><path class="d" d="M32.3935,35.2011c.1766,3.7545,3.6559,6.6075,3.6559,6.6075"/><path class="d" d="M20.9731,38.1929c-7.3843-.6251-10.7544,2.3086-10.7544,2.3086"/><path class="d" d="M34.5942,30.3497c2.8825.9938,5.7431,5.0616,5.7431,5.0616"/><path class="d" d="M33.6531,38.9826c3.3188-2.985,8.9671-4.2274,8.9671-4.2274"/></svg>