<?xml version="1.0" encoding="UTF-8" standalone="no"?>
<!-- Created with Inkscape (http://www.inkscape.org/) -->

<svg
   width="48"
   height="48"
   viewBox="0 0 12.7 12.7"
   version="1.1"
   id="svg1"
   xml:space="preserve"
   xmlns="http://www.w3.org/2000/svg"
   xmlns:svg="http://www.w3.org/2000/svg"><defs
     id="defs1"><style
       id="style1">.a{fill:none;stroke:#fff;stroke-linecap:round;stroke-linejoin:round;}</style><style
       id="style1-3">.q{fill:#fff;}.r,.s{fill:none;stroke:#fff;stroke-linecap:round;stroke-linejoin:round;}.s{stroke-width:1.0050968px;}</style><style
       id="style1-2">.q{fill:#fff;}.r,.s{fill:none;stroke:#fff;stroke-linecap:round;stroke-linejoin:round;}.s{stroke-width:1.0050968px;}</style></defs><path
     style="fill:#ffffff;fill-opacity:0;stroke:#ffffff;stroke-width:0.264583;stroke-linecap:round;stroke-linejoin:round;stroke-miterlimit:4.1;stroke-dasharray:none;stroke-opacity:1;paint-order:normal"
     d="M 4.7744868,8.1258351 C 4.4163196,7.7335568 3.7835149,7.0400695 3.2517254,6.2974777 2.7283573,5.5666455 2.2645422,4.8299204 2.166276,4.4152343 1.9247308,3.3959068 2.0655639,2.9771176 2.3119732,2.5611448 2.478176,2.2805716 2.8981155,1.9353259 3.2734867,1.7564488 3.7808674,1.5146647 4.2420973,1.5959436 4.8582939,1.9161012 6.068005,2.5446316 5.9610994,4.0703905 5.3415698,4.7610814 4.7091016,5.466197 4.5116159,6.1958121 4.5086066,6.7638982 c -0.00299,0.564416 0.2658802,1.3619369 0.2658802,1.3619369 z"
     id="path23" /><path
     style="fill:#ffffff;fill-opacity:0;stroke:#ffffff;stroke-width:0.264583;stroke-linecap:round;stroke-linejoin:round;stroke-miterlimit:4.1;stroke-dasharray:none;stroke-opacity:1;paint-order:normal"
     d="M 5.7364999,5.3841875 C 5.2807223,5.8808447 5.1043276,6.9327131 5.3007121,7.9727058 c 0.1827307,0.9676856 1.095042,2.0561832 1.4615543,2.4116322 0.6242628,0.60542 1.6114806,0.895748 1.971061,0.80012 0.465589,-0.12382 1.4412936,-0.374451 1.5895886,-1.5835227 C 10.445695,8.5998968 9.5609985,7.7836194 9.0806922,7.6253965 8.533976,7.4452968 7.7369394,7.805529 7.1813431,7.6870232 6.8355798,7.6132737 6.339221,7.1628316 6.1700215,6.8743155 5.806436,6.2543361 5.7364999,5.3841875 5.7364999,5.3841875 Z"
     id="path23-1" /></svg>
