<svg version="1.1" viewBox="0 0 48 48" xml:space="preserve" xmlns="http://www.w3.org/2000/svg"><defs><style>.a{fill:none;stroke:#fff;stroke-linecap:round;stroke-linejoin:round;}</style><style>.a{fill:none;stroke:#fff;stroke-linecap:round;stroke-linejoin:round;}</style><style>.a{fill:none;stroke:#fff;stroke-linecap:round;stroke-linejoin:round;}</style></defs><path d="m18.948 10.268a5.0675 5.8292 0 0 1 5.0516-5.3669 5.0675 5.8292 0 0 1 5.0516 5.3669" fill="none" stroke="#fff" stroke-linecap="round" stroke-width=".87322" style="paint-order:markers stroke fill"/><path d="m21.828 10.356a2.1792 2.5067 0 0 1 2.1723-2.308 2.1792 2.5067 0 0 1 2.1723 2.308" fill="none" stroke="#fff" stroke-linecap="round" stroke-width=".87322" style="paint-order:markers stroke fill"/><circle cx="24" cy="14.153" r="2.2092" fill="none" stroke="#fff" stroke-linecap="round" stroke-width=".71249" style="paint-order:markers stroke fill"/><path d="m24 16.362v4.2581" fill="none" stroke="#fff" stroke-width=".87322px"/><path d="m15.024 25.18 0.03189-4.5595h17.983v4.5595m-26.583 0h35.087c0.79974 0 1.4436 0.64383 1.4436 1.4436v15.032c0 0.79974-0.64383 1.4436-1.4436 1.4436h-35.087c-0.79974 0-1.4436-0.64383-1.4436-1.4436v-15.032c0-0.79974 0.64383-1.4436 1.4436-1.4436z" fill="none" stroke="#fff" stroke-linejoin="round" stroke-width=".87322px"/><path transform="matrix(.87322 0 0 .87322 3.0427 2.9879)" d="m10.768 29.979c-0.63911 0-1.1538 0.51473-1.1538 1.1538v1.7944h-1.7944c-0.63911 0-1.1538 0.51473-1.1538 1.1538v3.0031c0 0.63911 0.51473 1.1538 1.1538 1.1538h1.7944v1.7944c0 0.63911 0.51473 1.1538 1.1538 1.1538h3.0031c0.63911 0 1.1538-0.51473 1.1538-1.1538v-1.7944h1.7944c0.63911 0 1.1538-0.51473 1.1538-1.1538v-3.0031c0-0.63911-0.51473-1.1538-1.1538-1.1538h-1.7944v-1.7944c0-0.63911-0.51473-1.1538-1.1538-1.1538zm26.465 0c0.63911 0 1.1538 0.51473 1.1538 1.1538v1.7944h1.7944c0.63911 0 1.1538 0.51473 1.1538 1.1538v3.0031c0 0.63911-0.51473 1.1538-1.1538 1.1538h-1.7944v1.7944c0 0.63911-0.51473 1.1538-1.1538 1.1538h-3.0031c-0.63911 0-1.1538-0.51473-1.1538-1.1538v-1.7944h-1.7944c-0.63911 0-1.1538-0.51473-1.1538-1.1538v-3.0031c0-0.63911 0.51473-1.1538 1.1538-1.1538h1.7944v-1.7944c0-0.63911 0.51473-1.1538 1.1538-1.1538z" fill="none" stroke="#fff" stroke-linecap="round" stroke-linejoin="round" stroke-width="1.003" style="paint-order:markers stroke fill"/></svg>
