<?xml version="1.0" encoding="UTF-8" standalone="no"?>
<!-- Created with Inkscape (http://www.inkscape.org/) -->

<svg
   width="48"
   height="48"
   viewBox="0 0 12.7 12.7"
   version="1.1"
   id="svg1"
   xml:space="preserve"
   xmlns="http://www.w3.org/2000/svg"
   xmlns:svg="http://www.w3.org/2000/svg"><defs
     id="defs1"><style
       id="style1">.a{fill:none;stroke:#fff;stroke-linecap:round;stroke-linejoin:round;}</style><style
       id="style1-3">.q{fill:#fff;}.r,.s{fill:none;stroke:#fff;stroke-linecap:round;stroke-linejoin:round;}.s{stroke-width:1.0050968px;}</style><style
       id="style1-2">.q{fill:#fff;}.r,.s{fill:none;stroke:#fff;stroke-linecap:round;stroke-linejoin:round;}.s{stroke-width:1.0050968px;}</style><style
       id="style1-1">.a{fill:none;stroke:#fff;stroke-linecap:round;stroke-linejoin:round;}</style><style
       id="style1-3-9">.q{fill:#fff;}.r,.s{fill:none;stroke:#fff;stroke-linecap:round;stroke-linejoin:round;}.s{stroke-width:1.0050968px;}</style><style
       id="style1-2-4">.q{fill:#fff;}.r,.s{fill:none;stroke:#fff;stroke-linecap:round;stroke-linejoin:round;}.s{stroke-width:1.0050968px;}</style></defs><path
     style="fill:#ffffff;fill-opacity:0;stroke:#ffffff;stroke-width:0.264583;stroke-linecap:round;stroke-linejoin:round;stroke-miterlimit:4.1;stroke-dasharray:none;stroke-opacity:1;paint-order:normal"
     d="m 8.8461611,7.2755161 1.7271079,0.8244382 v 2.4071187 c 0,0 0.03009,1.480378 -1.7210901,1.480378"
     id="path23" /><path
     style="fill:#ffffff;fill-opacity:0;stroke:#ffffff;stroke-width:0.264583;stroke-linecap:round;stroke-linejoin:round;stroke-miterlimit:4.1;stroke-dasharray:none;stroke-opacity:1;paint-order:normal"
     d="M 8.8460014,7.2755557 7.1188937,8.0999939 v 2.4071181 c 0,0 -0.03009,1.480379 1.7210897,1.480379"
     id="path23-4" /><path
     style="fill:#ffffff;fill-opacity:0;stroke:#ffffff;stroke-width:0.264583;stroke-linecap:round;stroke-linejoin:round;stroke-miterlimit:4.1;stroke-dasharray:none;stroke-opacity:1;paint-order:normal"
     d="m 4.9278645,2.4639323 h 2.166276"
     id="path24" /><path
     style="fill:#ffffff;fill-opacity:0;stroke:#ffffff;stroke-width:0.264583;stroke-linecap:round;stroke-linejoin:round;stroke-miterlimit:4.1;stroke-dasharray:none;stroke-opacity:1;paint-order:normal"
     d="M 9.4505858,6.6145832 V 2.5466146 c 0,0 0.1240235,-1.60403649 -1.6288411,-1.60403649 -1.7528646,0 -3.6132161,0 -3.6132161,0 0,0 -1.6660482,-0.10748697 -1.6660482,1.66604819 0,1.7735351 0,7.1644205 0,7.1644205 0,0 -0.1198893,1.6453772 1.7156576,1.6453772 1.8355468,0 2.2324218,0 2.2324218,0"
     id="path25" /></svg>
