<?xml version="1.0" encoding="UTF-8"?>
<svg id="a" version="1.1" viewBox="0 0 48 48" xmlns="http://www.w3.org/2000/svg"><defs><style>.d{fill:none;stroke:#fff;stroke-linecap:round;stroke-linejoin:round;}</style></defs><path class="d" d="m12.134 24.718 1e-6-9.6219 11.866-6.8512 11.866 6.8512-1e-6 4.4695m-2e-6 2 2e-6 7.2325-11.866 6.8512-11.866-6.8512v-.58028"/><path class="d" d="m12.134 15.095 11.866 6.8512 11.866-6.8512"/><path class="d" d="m24 21.947v9.6687m0 2v2.0335"/><path class="d" d="m24 11.67-2.9667 1.7128v3.4255l5.9332-1e-6 2.9667-1.7128z"/><path class="d" d="m6.2004 32.224 5.9332-3.4255"/><path class="d" d="m35.867 28.798 5.9332 3.4255"/><path class="d" d="m20.16 10.446c.19035-1.1248.56827-1.9397 1.389-2.0476.60835-.079975 1.0301.11975 1.338.48758m4.9534 1.5721c.44857-1.1923 1.0598-2.1549 2.3335-1.9494 1.8311.29538 1.5239 2.4134 1.4766 4.165m2.3446 1.3485c.74818-1.8348.79058-5.3769 3.483-4.6554 2.4303.65119 2.0521 6.4035 1.1416 9.8016 1.0782-4.0241 3.1805-2.5017 3.1805-1.5977v14.653l-17.8 10.277-17.8-10.277 4e-7-12.737c0-1.0522.25751-1.9358 1.0573-2.2067 1.9782-.66998 1.6126 3.1718 3.4703 2.5471 1.8576-.62471-1.0303-8.6944 2.7803-9.0855 1.3936-.14303 1.9402.90286 2.233 2.2712"/><path class="d" d="m9.486 25.71c.10886-1.1893.45446-2.3664 1.3991-2.3397 1.8979.0537 1.1408 4.5706 2.928 4.7877 1.7872.2171 1.9992-3.9591 3.6888-3.6508s.61593 3.1921 1.6555 3.6136c1.0395.42149 1.252-1.425 2.5681-.99851 1.3161.42646.80582 4.7664 3.0077 4.6593s1.379-6.3461 3.5196-6.8271c2.1406-.48095 1.9864 4.0119 4.3555 3.3302 2.3691-.6817.5037-8.0003 3.2584-8.7194 1.2875-.33614 1.8324.7391 2.0476 1.9798"/><ellipse class="d" cx="8.2451" cy="14.897" rx=".79787" ry=".97175"/><ellipse class="d" cx="16.138" cy="9.2362" rx=".89594" ry="1.1526"/><ellipse class="d" transform="rotate(15)" cx="27.632" cy="-.42427" rx="1.1668" ry="1.2471"/><path class="d" d="m34.786 11.331a1.0179.94948 75 01-.12256.04264 1.0179.94948 75 01-1.1806-.73749 1.0179.94948 75 01.65367-1.229 1.0179.94948 75 011.1806.73749"/></svg>
