<?xml version="1.0" encoding="UTF-8" standalone="no"?>
<!-- Created with Inkscape (http://www.inkscape.org/) -->

<svg
   width="48"
   height="48"
   viewBox="0 0 12.7 12.7"
   version="1.1"
   id="svg1"
   xml:space="preserve"
   xmlns="http://www.w3.org/2000/svg"
   xmlns:svg="http://www.w3.org/2000/svg"><defs
     id="defs1"><style
       id="style1">.a{fill:none;stroke:#fff;stroke-linecap:round;stroke-linejoin:round;}</style><style
       id="style1-3">.q{fill:#fff;}.r,.s{fill:none;stroke:#fff;stroke-linecap:round;stroke-linejoin:round;}.s{stroke-width:1.0050968px;}</style><style
       id="style1-2">.q{fill:#fff;}.r,.s{fill:none;stroke:#fff;stroke-linecap:round;stroke-linejoin:round;}.s{stroke-width:1.0050968px;}</style><style
       id="style1-1">.a{fill:none;stroke:#fff;stroke-linecap:round;stroke-linejoin:round;}</style><style
       id="style1-3-9">.q{fill:#fff;}.r,.s{fill:none;stroke:#fff;stroke-linecap:round;stroke-linejoin:round;}.s{stroke-width:1.0050968px;}</style><style
       id="style1-2-4">.q{fill:#fff;}.r,.s{fill:none;stroke:#fff;stroke-linecap:round;stroke-linejoin:round;}.s{stroke-width:1.0050968px;}</style></defs><path
     style="fill:#ffffff;fill-opacity:0;stroke:#ffffff;stroke-width:0.264583;stroke-linecap:round;stroke-linejoin:round;stroke-miterlimit:4.1;stroke-dasharray:none;stroke-opacity:1;paint-order:normal"
     d="M 2.8773437,8.0449869 V 5.3743489 H 5.3247395 V 2.9352213 h 2.6623698"
     id="path35" /><path
     style="fill:#ffffff;fill-opacity:0;stroke:#ffffff;stroke-width:0.264583;stroke-linecap:round;stroke-linejoin:round;stroke-miterlimit:4.1;stroke-dasharray:none;stroke-opacity:1;paint-order:normal"
     d="m 9.3306965,4.5888671 v 4.0886393 c 0,0.7121929 -0.6738607,0.6738607 -0.6738607,0.6738607 H 4.5723307 Z"
     id="path36" /><path
     style="fill:#ffffff;fill-opacity:0;stroke:#ffffff;stroke-width:0.264583;stroke-linecap:round;stroke-linejoin:round;stroke-miterlimit:4.1;stroke-dasharray:none;stroke-opacity:1;paint-order:normal"
     d="M 6.3259355,12.03214 C 6.000374,12.037308 5.059081,12.067428 3.7959684,11.857072 2.7335881,11.680146 2.1992594,11.46853 1.6253328,10.915455 1.1875325,10.458802 0.89871929,9.6460899 0.77938312,8.4399065 0.6687469,7.3216573 0.6431173,6.7270663 0.6431173,6.3549959 M 6.3259355,12.03214 c 0.3255615,0.0052 1.2668545,0.03529 2.5299671,-0.175068 1.0623803,-0.176926 1.5967094,-0.388542 2.1706354,-0.941617 0.437801,-0.456653 0.726614,-1.2693651 0.84595,-2.4755485 0.110636,-1.1182492 0.136266,-1.7128402 0.136266,-2.0849106 M 6.3259355,0.66785981 C 6.000374,0.66269181 5.059081,0.63257181 3.7959684,0.84292781 2.7335881,1.0198538 2.1992594,1.2314698 1.6253328,1.7845448 1.1875325,2.2411978 0.89871929,3.0539099 0.77938312,4.2600933 0.6687469,5.3783425 0.6431173,5.9729335 0.6431173,6.3450039 M 6.3259355,0.66785981 c 0.3255615,-0.005168 1.2668545,-0.035288 2.5299671,0.175068 1.0623803,0.17692599 1.5967094,0.38854199 2.1706354,0.94161699 0.437801,0.456653 0.726614,1.2693651 0.84595,2.4755485 0.110636,1.1182492 0.136266,1.7128402 0.136266,2.0849106"
     id="path37" /></svg>
