<svg width="48" height="48" viewBox="0 0 48 48" xmlns="http://www.w3.org/2000/svg"><path d="M6 15.623V35.71c.104 2.197 1.977 3.975 4.162 3.975s4.058-1.778 4.161-3.975V21.643m19.354 5.174v8.893c.103 2.197 1.976 3.975 4.161 3.975S41.896 37.907 42 35.71V16.042c-1.145-1.465-7.699 6.59-8.323 10.775Z" style="fill:none;fill-opacity:0;stroke:#fff;stroke-width:1px"/><path d="M10.578 8.3C7.04 8.3 6 10.915 6 12.484v5.65c3.122-3.454 7.804 2.825 8.323 3.452 2.915 3.348 4.579 9.101 9.677 9.311 4.994-.21 6.971-5.859 9.677-9.311 0 0 4.681-7.741 8.323-8.37 0-2.928-1.145-4.916-4.578-4.916-3.538 0-6.035 5.23-7.804 7.531-1.768 2.303-2.6 4.814-5.618 4.814s-3.954-2.617-5.618-4.814C16.613 13.53 14.116 8.3 10.578 8.3Z" style="fill:none;fill-opacity:0;stroke:#fff;stroke-width:1px"/></svg>