<svg data-name="Layer 1" xmlns="http://www.w3.org/2000/svg" viewBox="0 0 48 48"><rect x="5.5" y="5.5" width="37" height="37" rx="4" ry="4" style="fill:none;stroke:#fff;stroke-linecap:round;stroke-linejoin:round;fill-opacity:0"/><circle class="q" cx="12.704" cy="30.229" r=".579" style="fill:#fff;stroke-width:1px"/><circle class="q" cx="10.583" cy="30.229" r=".579" style="fill:#fff;stroke-width:1px"/><rect class="r" x="9.6" y="32.175" width="4.086" height="6.168" rx="2.65" ry="2.65" style="fill:none;stroke:#fff;stroke-linecap:round;stroke-linejoin:round;stroke-width:1px"/><path class="r" style="fill:none;stroke:#fff;stroke-linecap:round;stroke-linejoin:round;stroke-width:1px" d="M18.657 36.3h-2.734m-.676 2.043 2.044-6.168 2.043 6.168m1.811-.007v-6.161l3.085 6.168 3.083-6.158v6.158m1.75-6.168h4.086m-2.043 6.168v-6.168m7.337 4.101v.024a2.043 2.043 0 1 1-4.087 0v-2.082a2.044 2.044 0 0 1 4.087 0v.026"/></svg>