<?xml version="1.0" encoding="UTF-8" standalone="no"?>
<!-- Created with Inkscape (http://www.inkscape.org/) -->

<svg
   width="48"
   height="48"
   viewBox="0 0 12.7 12.7"
   version="1.1"
   id="svg1"
   xml:space="preserve"
   xmlns="http://www.w3.org/2000/svg"
   xmlns:svg="http://www.w3.org/2000/svg"><defs
     id="defs1"><style
       id="style1">.a{fill:none;stroke:#fff;stroke-linecap:round;stroke-linejoin:round;}</style><style
       id="style1-3">.q{fill:#fff;}.r,.s{fill:none;stroke:#fff;stroke-linecap:round;stroke-linejoin:round;}.s{stroke-width:1.0050968px;}</style><style
       id="style1-2">.q{fill:#fff;}.r,.s{fill:none;stroke:#fff;stroke-linecap:round;stroke-linejoin:round;}.s{stroke-width:1.0050968px;}</style></defs><path
     d="M 10.306348,3.4023763 9.4645386,4.2576213 A 3.7637827,3.7367055 0 0 1 10.132715,6.3830729 3.7637827,3.7367055 0 0 1 6.3691203,10.119796 3.7637827,3.7367055 0 0 1 4.3005127,9.5048462 L 3.4566366,10.362675 A 4.9532514,4.9176168 0 0 0 6.3665365,11.300602 4.9532514,4.9176168 0 0 0 11.319722,6.3830729 4.9532514,4.9176168 0 0 0 10.306348,3.4023763 Z"
     style="fill:#ffffff;fill-opacity:0;stroke:#ffffff;stroke-width:0.264583;stroke-linecap:round;stroke-linejoin:round;stroke-miterlimit:4.1;stroke-dasharray:none"
     id="path18" /><path
     d="M 6.3665365,1.4655436 A 4.9532514,4.9176168 0 0 0 1.4133504,6.3830729 4.9532514,4.9176168 0 0 0 2.4344767,9.3735881 L 3.2783529,8.5157593 A 3.7637827,3.7367055 0 0 1 2.6055257,6.3830729 3.7637827,3.7367055 0 0 1 6.3691203,2.6463501 3.7637827,3.7367055 0 0 1 8.4449626,3.2659505 L 9.2867716,2.4107056 A 4.9532514,4.9176168 0 0 0 6.3665365,1.4655436 Z"
     style="fill:#ffffff;fill-opacity:0;stroke:#ffffff;stroke-width:0.264583;stroke-linecap:round;stroke-linejoin:round;stroke-miterlimit:4.1;stroke-dasharray:none"
     id="path15" /></svg>
