<svg viewBox="0 0 48 48" xmlns="http://www.w3.org/2000/svg"><path d="M8.575 41.498c.344-3.515 2.07-7.506 4.572-10.025a15.2 15.2 0 0 1 4.079-2.932 5.66 5.66 0 0 1-2.337-1.417 5.72 5.72 0 0 1-1.662-4.036v-5.266a9.8 9.8 0 0 1 .914-4.145c-1.783-2.31-2.162-5.024-.771-6.424.759-.763 1.954-1.025 3.322-.728 1.205.26 2.457.936 3.542 1.902a9.7 9.7 0 0 1 2.721-.388h2.208c.879 0 1.745.12 2.578.35 1.012-.83 2.148-1.41 3.243-1.648 1.369-.296 2.564-.035 3.322.728 1.302 1.31 1.053 3.77-.444 5.974a9.8 9.8 0 0 1 1.029 4.38v5.265a5.72 5.72 0 0 1-1.662 4.036 5.66 5.66 0 0 1-2.512 1.468c1.457.732 2.801 1.7 3.974 2.88h.002c2.503 2.52 4.242 6.459 4.587 9.974" style="fill:none;fill-opacity:0;stroke:#fff;stroke-width:.812981;stroke-linecap:round;stroke-linejoin:round"/><path style="fill:none;fill-opacity:0;stroke:#fff;stroke-width:.812981;stroke-linecap:round;stroke-linejoin:round" d="M23.838 17.851a6.596 4.377 0 0 1 6.596 4.377v1.115a3.243 3.261 0 0 1-3.243 3.26h-6.706a3.243 3.261 0 0 1-3.242-3.26v-1.115a6.596 4.377 0 0 1 6.595-4.377"/><path style="fill:none;stroke:#fff;stroke-linecap:round;stroke-linejoin:round" transform="matrix(.81067 0 0 .8153 4.491 2.266)" d="m-.007 23.325 2.535-.01 1.286-3.539 1.96 7.906.682-4.348 4.316.055"/><path style="fill:none;stroke:#fff;stroke-width:1px;stroke-linecap:round;stroke-linejoin:round" transform="matrix(.81067 0 0 .8153 4.566 2.274)" d="m37.462 23.807 2.275.012 1.286-3.539 1.96 7.906.682-4.348 4.316.055"/><path d="M23.731 19.863h.37a1.621 1.12 0 0 1 1.622 1.12v0a1.621 1.12 0 0 1-1.621 1.12h-.37a1.621 1.12 0 0 1-1.622-1.12v0a1.621 1.12 0 0 1 1.621-1.12" style="fill:none;stroke:#fff;stroke-width:.812981;stroke-linecap:round;stroke-linejoin:round"/><path style="fill:none;stroke:#fff;stroke-width:.812981px;stroke-linecap:round;stroke-linejoin:round" d="M21.062 23.284c.748 1.851 2.326 1.536 2.834-.854.507 2.42 2.086 2.736 2.834.885"/><path d="M19.695 13.387a.81.815 0 0 1 .81.815v1.076a.81.815 0 0 1-.81.816v0a.81.815 0 0 1-.81-.816v-1.076a.81.815 0 0 1 .81-.815" style="fill:none;stroke:#fff;stroke-width:.812981;stroke-linecap:round;stroke-linejoin:round"/><path d="M28.261 13.354a.81.815 0 0 1 .81.816v1.075a.81.815 0 0 1-.81.815v0a.81.815 0 0 1-.81-.815V14.17a.81.815 0 0 1 .81-.816" style="fill:none;stroke:#fff;stroke-width:.812981px;stroke-linecap:round;stroke-linejoin:round"/><path style="fill:none;stroke:#fff;stroke-width:.812981;stroke-linecap:round;stroke-linejoin:round" d="M20.03 28.683q-.757 1.82-.03 4.106"/><path style="fill:none;stroke:#fff;stroke-width:.812981px;stroke-linecap:round;stroke-linejoin:round" d="m22.852 37.202 1.03-.242c-.393-3.443-1.587-4.571-3.834-4.177-2.173.308-2.865 1.934-1.842 5.243l.999-.205"/><path style="fill:none;stroke:#fff;stroke-width:.812981;stroke-linecap:round;stroke-linejoin:round" d="m19.11 37.286.247 1.144m3.334-1.735.32 1.116m6.024-9.337q.3 2.446-.769 4.047"/><path d="M28.588 33.175a.608.611 0 0 1-.608.611.608.611 0 0 1-.608-.611.608.611 0 0 1 .608-.611.608.611 0 0 1 .608.611" style="fill:#fff;stroke:#fff;stroke-width:.812981;stroke-linecap:round;stroke-linejoin:round"/></svg>