<?xml version="1.0" encoding="UTF-8" standalone="no"?>
<svg
   id="b"
   viewBox="0 0 48 48"
   version="1.1"
   sodipodi:docname="pex.svg"
   xml:space="preserve"
   inkscape:version="1.4.3 (0d15f75042, 2025-12-25)"
   xmlns:inkscape="http://www.inkscape.org/namespaces/inkscape"
   xmlns:sodipodi="http://sodipodi.sourceforge.net/DTD/sodipodi-0.dtd"
   xmlns="http://www.w3.org/2000/svg"
   xmlns:svg="http://www.w3.org/2000/svg"><sodipodi:namedview
     id="namedview2"
     pagecolor="#ffffff"
     bordercolor="#000000"
     borderopacity="0.25"
     inkscape:showpageshadow="2"
     inkscape:pageopacity="0.0"
     inkscape:pagecheckerboard="0"
     inkscape:deskcolor="#d1d1d1"
     showguides="true"
     inkscape:zoom="8.1979167"
     inkscape:cx="20.858958"
     inkscape:cy="18.053367"
     inkscape:window-width="1920"
     inkscape:window-height="996"
     inkscape:window-x="0"
     inkscape:window-y="0"
     inkscape:window-maximized="1"
     inkscape:current-layer="b" /><defs
     id="defs1"><style
       id="style1">.c{fill:none;stroke:#000;stroke-linecap:round;stroke-linejoin:round;}</style></defs><rect
     class="c"
     x="5.5"
     y="5.5"
     width="37"
     height="37"
     rx="4"
     ry="4"
     id="rect2"
     style="stroke:#ffffff" /><path
     class="t"
     d="m 10.191137,25.981409 v -6.511405 h 2.131672 c 1.20518,0 2.182136,0.97907 2.182136,2.186774 0,1.207703 -0.976956,2.186775 -2.182136,2.186775 h -2.131672"
     id="path355"
     style="fill:none;stroke:#ffffff;stroke-width:1;stroke-linecap:round;stroke-linejoin:round;stroke-dasharray:none" /><g
     id="g2"
     style="stroke:#ffffff;stroke-width:1.30492469;stroke-dasharray:none"
     transform="matrix(0.76632775,0,0,0.76632775,-2.6022484,3.1843489)"><line
       class="t"
       x1="24.500002"
       y1="25.500002"
       x2="27.108004"
       y2="25.500002"
       id="line412"
       style="fill:none;stroke:#ffffff;stroke-width:1.30492469;stroke-linecap:round;stroke-linejoin:round;stroke-dasharray:none" /><polyline
       class="t"
       points="131.8338 48.65 127.8338 48.65 127.8338 40.65 131.8338 40.65"
       id="polyline412"
       style="fill:none;stroke:#ffffff;stroke-width:1.30492469;stroke-linecap:round;stroke-linejoin:round;stroke-dasharray:none"
       transform="translate(-103.3338,-19.15)" /></g><g
     id="g3"
     transform="matrix(0.76632775,0,0,0.76632775,-10.896668,-3.7126009)"
     style="stroke-width:1.30492469;stroke-dasharray:none;stroke:#ffffff"><line
       class="t"
       x1="41.499996"
       y1="30.5"
       x2="46.799984"
       y2="38.5"
       id="line348"
       style="fill:none;stroke:#ffffff;stroke-width:1.30492469;stroke-linecap:round;stroke-linejoin:round;stroke-dasharray:none" /><line
       class="t"
       x1="46.799984"
       y1="30.5"
       x2="41.499996"
       y2="38.5"
       id="line349"
       style="fill:none;stroke:#ffffff;stroke-width:1.30492469;stroke-linecap:round;stroke-linejoin:round;stroke-dasharray:none" /></g><path
     style="fill:none;stroke:#ffffff;stroke-width:1;stroke-linecap:round;stroke-linejoin:round;stroke-dasharray:none"
     d="M 8.4148864,27.986998 H 27.889417 l 3.581398,1.677843 c 0.02064,-4.250994 -3.201328,-5.189973 -3.995456,-5.802583 4.564273,0.978361 5.754326,2.672566 7.744813,6.877877 1.431843,-4.764584 -3.264442,-9.641162 -6.667123,-10.538402 3.528277,0.759106 9.569766,4.403842 10.61398,11.670339 C 41.512715,22.765358 33.438807,16.684899 29.752362,16.1281"
     id="path3"
     sodipodi:nodetypes="cccccccc" /></svg>
