<?xml version="1.0" encoding="UTF-8" standalone="no"?>
<!-- Created with Inkscape (http://www.inkscape.org/) -->

<svg
   width="48"
   height="48"
   viewBox="0 0 12.7 12.7"
   version="1.1"
   id="svg1"
   xml:space="preserve"
   xmlns="http://www.w3.org/2000/svg"
   xmlns:svg="http://www.w3.org/2000/svg"><defs
     id="defs1"><style
       id="style1">.a{fill:none;stroke:#fff;stroke-linecap:round;stroke-linejoin:round;}</style><style
       id="style1-3">.q{fill:#fff;}.r,.s{fill:none;stroke:#fff;stroke-linecap:round;stroke-linejoin:round;}.s{stroke-width:1.0050968px;}</style><style
       id="style1-2">.q{fill:#fff;}.r,.s{fill:none;stroke:#fff;stroke-linecap:round;stroke-linejoin:round;}.s{stroke-width:1.0050968px;}</style></defs><g
     id="layer1"><rect
       style="fill:#000000;fill-opacity:0;stroke:#ffffff;stroke-width:0.264583;stroke-linecap:round;stroke-linejoin:round;stroke-miterlimit:4.1;stroke-dasharray:none;stroke-opacity:1;paint-order:normal"
       id="rect1"
       width="11.561468"
       height="3.3448215"
       x="0.4464705"
       y="4.3320084" /></g><g
     id="g3"
     transform="matrix(0.26458333,0,0,0.26458333,-54.286808,18.062667)"
     style="stroke:#ffffff"><path
       class="r"
       d="m 209.9804,-41.62067 v -8 h 2.61904 c 1.48065,0 2.68096,1.202894 2.68096,2.68674 0,1.483845 -1.20031,2.68674 -2.68096,2.68674 h -2.61904"
       id="path16-7"
       style="stroke:#ffffff;stroke-opacity:1" /><path
       class="r"
       d="m 217.80167,-41.618355 v -8 h 2.61904 c 1.48065,0 2.68096,1.202894 2.68096,2.68674 0,1.483845 -1.20031,2.68674 -2.68096,2.68674 h -2.61904"
       id="path19-0"
       style="stroke:#ffffff;stroke-opacity:1" /><line
       class="r"
       x1="220.42072"
       y1="-44.244877"
       x2="223.03952"
       y2="-41.620365"
       id="line19-9"
       style="stroke:#ffffff;stroke-opacity:1" /><path
       class="r"
       d="m 233.72149,-42.495894 c 0.49056,0.638659 1.1057,0.876544 1.96151,0.876545 l 1.18437,-10e-7 c 1.10219,0 1.9957,-0.893502 1.9957,-1.995692 v -0.0086 c 0,-1.102191 -0.89351,-1.995692 -1.9957,-1.995692 h -1.30646 c -1.10338,0 -1.99784,-0.894466 -1.99784,-1.997846 v -4e-6 c 0,-1.105757 0.89639,-2.00215 2.00215,-2.00215 h 1.17791 c 0.85581,0 1.47095,0.237886 1.96151,0.876544"
       id="path51-3"
       style="stroke:#ffffff;stroke-opacity:1" /><path
       class="r"
       d="m 225.93148,-49.619349 v 5.35 c 0,1.463554 1.18644,2.65 2.65,2.65 1.46355,0 2.65,-1.186446 2.65,-2.65 v -5.35"
       id="path75-6"
       style="stroke:#ffffff;stroke-opacity:1" /><line
       class="r"
       x1="246.0385"
       y1="-44.266487"
       x2="242.49416"
       y2="-44.266487"
       id="line241-0"
       style="stroke:#ffffff;stroke-opacity:1" /><polyline
       class="r"
       points="87.18380544 48.65004656 89.83380544 40.65 92.48380544 48.65004656"
       id="polyline241-6"
       style="stroke:#ffffff;stroke-opacity:1"
       transform="translate(154.43252,-90.266486)" /></g></svg>
