<?xml version="1.0" encoding="UTF-8" standalone="no"?>
<!-- Created with Inkscape (http://www.inkscape.org/) -->

<svg
   width="48"
   height="48"
   viewBox="0 0 12.7 12.7"
   version="1.1"
   id="svg1"
   xml:space="preserve"
   xmlns="http://www.w3.org/2000/svg"
   xmlns:svg="http://www.w3.org/2000/svg"><defs
     id="defs1"><style
       id="style1">.a{fill:none;stroke:#fff;stroke-linecap:round;stroke-linejoin:round;}</style><style
       id="style1-3">.q{fill:#fff;}.r,.s{fill:none;stroke:#fff;stroke-linecap:round;stroke-linejoin:round;}.s{stroke-width:1.0050968px;}</style><style
       id="style1-2">.q{fill:#fff;}.r,.s{fill:none;stroke:#fff;stroke-linecap:round;stroke-linejoin:round;}.s{stroke-width:1.0050968px;}</style><style
       id="style1-1">.a{fill:none;stroke:#fff;stroke-linecap:round;stroke-linejoin:round;}</style><style
       id="style1-3-9">.q{fill:#fff;}.r,.s{fill:none;stroke:#fff;stroke-linecap:round;stroke-linejoin:round;}.s{stroke-width:1.0050968px;}</style><style
       id="style1-2-4">.q{fill:#fff;}.r,.s{fill:none;stroke:#fff;stroke-linecap:round;stroke-linejoin:round;}.s{stroke-width:1.0050968px;}</style></defs><path
     style="fill:#000000;fill-opacity:0;stroke:#ffffff;stroke-width:0.264583;stroke-linecap:round;stroke-linejoin:round;stroke-dasharray:none"
     d="M 8.6175415,10.504966 C 8.6418822,10.256845 8.3171086,9.7706935 8.4259848,9.7039486 8.5076277,9.8740082 8.9447284,10.339805 8.8186108,9.872253 8.562279,9.1548487 8.2320609,8.4656497 8.0080584,7.7360578 7.8586257,7.2972078 7.666926,6.8728589 7.5159388,6.4357179 7.5637916,5.9801234 8.1536047,5.8415937 8.457465,5.5614139 8.780738,5.4653899 8.8961879,5.1389351 8.9890427,4.86767 9.2418311,4.7450686 9.5111369,4.5899744 9.5452201,4.2785527 9.548856,4.0142678 9.8653778,4.0273413 9.9934605,3.8435468 10.180399,3.4140962 10.434065,2.9912329 10.588676,2.5559696 10.253994,2.4074363 9.840047,2.6449803 9.4870858,2.7092408 9.0022647,2.8424844 8.571559,3.108951 8.1664633,3.3979787 8.2907748,3.0709932 8.5758072,2.7459021 8.7159631,2.3959149 8.9147126,1.838561 8.2418294,2.5242303 8.1074222,2.6582895 7.5451819,3.1315131 6.9391972,3.5523061 6.4095371,4.064857 6.1349766,4.2531183 5.7006103,4.896598 5.4078678,4.4012657 5.1351453,4.0461549 4.5745154,3.9191693 4.2296983,4.2467088 4.0707568,4.3688001 3.9940471,4.5958335 3.7656042,4.5979274 3.2411366,4.7144672 2.6518771,4.7890958 2.1261788,4.8992639 c 0.384437,0.028806 0.586351,0.027105 0.7733938,0.023557 0.5361865,-0.010158 0.6839055,-0.011457 1.2192623,0.024753 0.4521136,0.2849617 0.6996812,0.7961557 0.9590993,1.2471721 0.3814233,0.707867 0.9989461,1.2768668 1.7375485,1.5954183 0.4050456,0.207453 0.3652914,0.7356156 0.472532,1.1153045 0.1032099,0.280669 0.072033,0.852717 0.3463046,0.9508709 C 7.8278831,9.7118048 7.8999602,10.645586 8.102363,10.259532 8.1155499,10.10219 7.9173585,9.4938238 8.1414963,9.9212245 8.2442496,10.031742 8.4317619,10.68816 8.6175415,10.504966 Z"
     id="path12" /></svg>
