<?xml version="1.0" encoding="UTF-8" standalone="no"?>
<!-- Created with Inkscape (http://www.inkscape.org/) -->

<svg
   width="48"
   height="48"
   viewBox="0 0 12.7 12.7"
   version="1.1"
   id="svg1"
   xml:space="preserve"
   xmlns="http://www.w3.org/2000/svg"
   xmlns:svg="http://www.w3.org/2000/svg"><defs
     id="defs1"><style
       id="style1">.a{fill:none;stroke:#fff;stroke-linecap:round;stroke-linejoin:round;}</style><style
       id="style1-3">.q{fill:#fff;}.r,.s{fill:none;stroke:#fff;stroke-linecap:round;stroke-linejoin:round;}.s{stroke-width:1.0050968px;}</style><style
       id="style1-2">.q{fill:#fff;}.r,.s{fill:none;stroke:#fff;stroke-linecap:round;stroke-linejoin:round;}.s{stroke-width:1.0050968px;}</style><style
       id="style1-1">.a{fill:none;stroke:#fff;stroke-linecap:round;stroke-linejoin:round;}</style><style
       id="style1-3-9">.q{fill:#fff;}.r,.s{fill:none;stroke:#fff;stroke-linecap:round;stroke-linejoin:round;}.s{stroke-width:1.0050968px;}</style><style
       id="style1-2-4">.q{fill:#fff;}.r,.s{fill:none;stroke:#fff;stroke-linecap:round;stroke-linejoin:round;}.s{stroke-width:1.0050968px;}</style></defs><rect
     style="fill:#00ff00;fill-opacity:0;stroke:#ffffff;stroke-width:0.264583;stroke-linecap:round;stroke-linejoin:round;stroke-miterlimit:4.1"
     id="rect11"
     width="9.7383308"
     height="7.5210419"
     x="1.4722795"
     y="1.0997751"
     ry="1.9689523" /><rect
     style="fill:#00ff00;fill-opacity:0;stroke:#ffffff;stroke-width:0.264583;stroke-linecap:round;stroke-linejoin:round;stroke-miterlimit:4.1"
     id="rect12"
     width="9.8092852"
     height="2.9977746"
     x="1.4013264"
     y="8.6281643"
     ry="1.4988873"
     rx="1.4988873" /><path
     style="fill:#00ff00;fill-opacity:0;stroke:#ffffff;stroke-width:0.264583;stroke-linecap:round;stroke-linejoin:round;stroke-miterlimit:4.1"
     id="path12"
     d="M 5.4310665,4.8415383 C 5.4310737,5.4227046 4.960492,5.8941244 4.3793267,5.8951514 3.7981613,5.8961784 3.3259164,5.4264247 3.3238696,4.8452621 3.3218227,4.2640994 3.7907469,3.7910309 4.3719051,3.7879642 4.9530633,3.7848975 5.4269539,4.2529909 5.4310405,4.8341427 m 1.856372,0.0074 C 7.2874053,5.4227046 7.757987,5.8941244 8.3391523,5.8951514 8.9203177,5.8961784 9.3925626,5.4264247 9.3946094,4.8452621 9.3966563,4.2640994 8.9277321,3.7910309 8.3465739,3.7879642 7.7654157,3.7848975 7.2915251,4.2529909 7.2874385,4.8341427" /></svg>
