<svg width="48" height="48" viewBox="0 0 48 48" fill="none" xmlns="http://www.w3.org/2000/svg">
<path d="M33.4697 29.8177H14.5303C14.4105 29.8177 14.3392 29.6846 14.4078 29.5864C15.956 27.3677 18.928 24.5677 24 24.5677C29.072 24.5677 32.044 27.3677 33.5922 29.5864C33.6608 29.6846 33.5895 29.8177 33.4697 29.8177Z" stroke="white"/>
<path d="M12 33.0677C12 32.6927 12.375 32.3177 12.75 32.3177H35.25C35.625 32.3177 36 32.6927 36 33.0677C36 33.8177 34.5 33.8177 34.5 34.5677C34.5 35.3037 35.2223 36.0397 36.6668 36.7757C36.7174 36.8015 36.7511 36.8541 36.7459 36.9107C36.6852 37.5677 35.9676 37.5677 35.25 37.5677H12.75C12.0324 37.5677 11.3148 37.5677 11.2541 36.9107C11.2489 36.8541 11.2826 36.8015 11.3332 36.7757C12.7777 36.0397 13.5 35.3037 13.5 34.5677C13.5 33.8177 12 33.8177 12 33.0677Z" stroke="white"/>
<path d="M25.3919 20.6206C22.4801 22.0193 20.6563 20.5657 20.6254 18.3744C20.6249 18.3381 20.6125 18.3035 20.5888 18.2759C19.7047 17.251 18.0791 14.8431 18.375 13.0676C18.675 11.2676 19.875 11.5676 20.25 12.3176C20.9696 13.757 22.0345 15.8866 23.4446 16.0568C23.5378 16.068 23.609 15.9826 23.5931 15.8901C23.2422 13.8468 23.1259 10.1484 24 7.81763C24.75 6.31762 26.25 7.06763 26.25 8.56763C26.25 9.30045 25.534 13.9714 26.9004 15.2345C26.9552 15.2852 27.0392 15.2789 27.0904 15.2245C28.5307 13.6966 29.2804 10.7872 30.75 9.31764C31.5 8.56763 32.8792 9.2925 32.625 10.8176C32.25 13.0676 30.875 14.5676 30 16.0676C29.756 16.4336 29.5597 17.371 30.6656 18.2524C30.7153 18.292 30.7846 18.2937 30.8401 18.2626C32.0449 17.5872 35.269 17.9712 36 19.0676C36.7431 20.1823 36.0136 21.297 34.541 20.9526C34.5145 20.9464 34.49 20.9324 34.4702 20.9136C33.711 20.1927 32.2402 20.1975 31.5 20.5676C29.2812 22.0469 27.427 22.7967 25.5779 20.6594C25.5324 20.6068 25.4546 20.5905 25.3919 20.6206Z" stroke="white"/>
</svg>
