<svg xmlns="http://www.w3.org/2000/svg" xml:space="preserve" style="fill-rule:evenodd;clip-rule:evenodd;stroke-linecap:round;stroke-linejoin:round;stroke-miterlimit:1.5" viewBox="0 0 48 48"><path d="M0 0h48v48H0z" style="fill:none"/><path d="m33 27 2 3c-1.403-.458-4.146 3.105-7 7H15s4.117-5.945 5-8c.585-1.362-7-10-7-10l2-3s9 10 8 12c-1.202 2.404-5 7-5 7h10l5-6h-3s-2 5-3 5h-4s4.005-7 4-8c-.015-3.019-8-15-8-15l2-3s8.411 13.03 8 16c-.369 2.667-1 3-4 9h1s2.463-6 4-6z" style="fill:none;stroke:#fff;stroke-width:.5px" transform="translate(0 1.5)"/><path d="M16 15s8 10 8 12-4 7-4 7h2s4.632-7.735 4-9c-1-2-8-13-8-13z" style="fill:none;stroke:#fff;stroke-width:.5px" transform="translate(0 1.5)"/></svg>