<?xml version="1.0" encoding="UTF-8" standalone="no"?>
<svg
   id="Layer_1"
   data-name="Layer 1"
   version="1.1"
   viewBox="0 0 48 48"
   sodipodi:docname="unite_students.svg"
   xml:space="preserve"
   inkscape:version="1.4.3 (0d15f75042, 2025-12-25)"
   xmlns:inkscape="http://www.inkscape.org/namespaces/inkscape"
   xmlns:sodipodi="http://sodipodi.sourceforge.net/DTD/sodipodi-0.dtd"
   xmlns="http://www.w3.org/2000/svg"
   xmlns:svg="http://www.w3.org/2000/svg"><sodipodi:namedview
     id="namedview1"
     pagecolor="#505050"
     bordercolor="#ffffff"
     borderopacity="1"
     inkscape:showpageshadow="0"
     inkscape:pageopacity="0"
     inkscape:pagecheckerboard="1"
     inkscape:deskcolor="#505050"
     inkscape:zoom="6.6230343"
     inkscape:cx="7.0964452"
     inkscape:cy="24.762064"
     inkscape:window-width="1587"
     inkscape:window-height="988"
     inkscape:window-x="0"
     inkscape:window-y="0"
     inkscape:window-maximized="0"
     inkscape:current-layer="Layer_1" /><defs
     id="defs1"><style
       id="style1">
      .cls-1 {
        fill: none;
        stroke: #fff;
        stroke-linecap: round;
        stroke-linejoin: round;
      }
    </style><clipPath
       id="clip0_97_3218"><rect
         width="457"
         height="192"
         fill="white"
         id="rect14" /></clipPath></defs><g
     style="fill:none;stroke-width:0.881869;stroke:#ffffff;stroke-opacity:1;stroke-linejoin:round;stroke-linecap:round;paint-order:stroke fill markers"
     id="g1"
     transform="matrix(1.1342804,0,0,1.1336304,-208.25755,-49.790035)"><g
       clip-path="url(#clip0_97_3218)"
       id="g14"
       style="stroke-width:0.881869;stroke:#ffffff;stroke-opacity:1;stroke-linejoin:round;stroke-linecap:round;paint-order:stroke fill markers"><g
         id="g4"
         style="stroke-width:0.881869;stroke:#ffffff;stroke-opacity:1;stroke-linejoin:round;stroke-linecap:round;paint-order:stroke fill markers"><path
           d="m 205.34853,81.408437 c 0.12459,0.0096 0.2498,-0.0052 0.36697,-0.04306 0.11717,-0.03785 0.22383,-0.0982 0.31193,-0.17665 0.0884,-0.07818 0.1562,-0.172811 0.1991,-0.276772 0.0426,-0.10396 0.0594,-0.215053 0.0486,-0.325322 v -0.95183 c -0.007,-0.109995 0.0114,-0.220264 0.0541,-0.323677 0.0424,-0.103686 0.10823,-0.198321 0.19323,-0.278691 0.14313,-0.123982 0.33079,-0.199692 0.5302,-0.213682 h 11.7173 v -2.60643 h -14.00794 -14.00794 v 2.60643 h 11.7173 c 0.19941,0.01399 0.38707,0.0897 0.5302,0.213682 0.085,0.08037 0.15087,0.175005 0.19323,0.278691 0.0427,0.103413 0.0609,0.213682 0.0541,0.323677 v 0.95183 c -0.0108,0.110269 0.006,0.221362 0.0486,0.325322 0.0429,0.103961 0.11068,0.198595 0.1991,0.276772 0.0881,0.07845 0.19476,0.138797 0.31193,0.17665 0.11717,0.03785 0.24238,0.05267 0.36697,0.04306 z"
           fill="#ffdc00"
           id="path1-6-7"
           style="fill:none;stroke:#ffffff;stroke-width:0.881869;stroke-linecap:round;stroke-linejoin:round;stroke-dasharray:none;stroke-opacity:1;paint-order:stroke fill markers"
           sodipodi:nodetypes="cscccccccccccccccccccscc" /><g
           id="g2"
           transform="translate(-0.15545551)"
           style="stroke-width:0.881869;stroke:#ffffff;stroke-opacity:1;stroke-linejoin:round;stroke-linecap:round;paint-order:stroke fill markers"><path
             d="m 206.43554,67.677821 c 0.0872,-0.102114 0.19629,-0.182392 0.31882,-0.234457 0.12257,-0.05172 0.25517,-0.0739 0.3875,-0.06483 0.25142,0.02049 0.48907,0.125962 0.67571,0.299285 l 0.59311,0.522322 c 0.23159,0.200869 0.48339,0.375872 0.75118,0.522323 0.31204,0.167278 0.64234,0.295928 0.98401,0.383933 0.41732,0.107155 0.84641,0.158545 1.27666,0.153505 0.94163,0.03863 1.8642,-0.278796 2.59174,-0.891475 0.32318,-0.270063 0.58228,-0.611671 0.7579,-0.998962 0.17561,-0.387292 0.26315,-0.810189 0.25603,-1.237116 0.0204,-0.445067 -0.049,-0.889796 -0.20411,-1.30631 -0.15509,-0.416515 -0.3925,-0.795746 -0.69733,-1.113842 -0.8549,-0.774582 -1.82312,-1.40708 -2.86944,-1.874988 -0.77638,-0.371504 -1.52673,-0.797759 -2.24569,-1.275408 -0.6376,-0.42256 -1.21627,-0.931784 -1.72025,-1.513225 -0.47885,-0.556583 -0.85085,-1.200502 -1.09651,-1.898164 -0.2624,-0.783315 -0.38937,-1.607611 -0.37523,-2.435602 -6.6e-4,-0.756109 0.1421,-1.505196 0.4208,-2.205511 0.28261,-0.714189 0.70716,-1.360525 1.24674,-1.898065 0.57405,-0.566526 1.2479,-1.016597 1.98584,-1.326329 0.82752,-0.344163 1.71342,-0.517453 2.6067,-0.509862 1.11022,-0.03245 2.21058,0.221256 3.19981,0.737803 0.77432,0.409292 1.48756,0.929465 2.11826,1.544832 0.10767,0.08125 0.19508,0.187229 0.25534,0.309362 0.0603,0.122169 0.0916,0.257064 0.0916,0.393875 0,0.136845 -0.0315,0.271742 -0.0916,0.393875 -0.0603,0.122132 -0.14773,0.228109 -0.25534,0.309363 l -0.7512,0.806997 c -0.15857,0.191966 -0.38051,0.317661 -0.6237,0.353265 -0.26625,-0.02271 -0.51374,-0.149174 -0.69138,-0.353265 -0.40773,-0.354876 -0.84788,-0.668774 -1.31439,-0.937359 -0.58593,-0.356894 -1.25623,-0.542812 -1.93811,-0.537539 -0.45555,-0.0022 -0.90708,0.08666 -1.32933,0.261463 -0.38479,0.155085 -0.74054,0.376845 -1.05166,0.655541 -0.28811,0.257298 -0.52313,0.570759 -0.69138,0.922076 -0.1632,0.339829 -0.24794,0.713684 -0.24779,1.092578 -0.007,0.445066 0.065,0.887445 0.2136,1.305975 0.15283,0.39468 0.37999,0.755101 0.6686,1.060433 0.33953,0.360083 0.72628,0.670454 1.14918,0.922042 0.55189,0.333883 1.12682,0.62578 1.72025,0.874009 0.82755,0.365793 1.62824,0.792049 2.39596,1.275408 0.65624,0.409796 1.25302,0.911628 1.77292,1.490719 0.48046,0.549867 0.85277,1.189083 1.09652,1.883049 0.26239,0.783316 0.38937,1.607612 0.37521,2.435603 0.004,0.836725 -0.176,1.663708 -0.52548,2.420151 -0.34682,0.757115 -0.83717,1.436303 -1.44255,1.997927 -0.63229,0.582785 -1.35927,1.048339 -2.14813,1.37517 -0.82714,0.345975 -1.7131,0.520979 -2.60673,0.514932 -1.20178,0.06046 -2.40012,-0.176683 -3.49315,-0.69128 -0.83305,-0.450105 -1.5829,-1.045653 -2.2158,-1.759775 -0.17827,-0.179369 -0.28529,-0.420208 -0.30047,-0.675827 -0.007,-0.137383 0.0144,-0.275102 0.0651,-0.402407 0.0506,-0.127641 0.12834,-0.242182 0.22753,-0.335227 z"
             fill="#ffffff"
             id="path2-9"
             style="fill:none;stroke:#ffffff;stroke-width:0.881869;stroke-opacity:1;stroke-linejoin:round;stroke-linecap:round;paint-order:stroke fill markers" /><path
             d="m 200.28406,56.712626 c -0.005,-0.09965 0.009,-0.199371 0.0428,-0.293114 0.0335,-0.09374 0.0854,-0.179553 0.15243,-0.25223 0.0712,-0.06823 0.15519,-0.121016 0.24695,-0.15516 0.0917,-0.03414 0.18931,-0.04894 0.28684,-0.04349 h 0.8513 c 0.0976,-0.0055 0.19529,0.0092 0.28713,0.04338 0.0918,0.03414 0.17593,0.08697 0.24721,0.155269 0.0669,0.07272 0.11864,0.158554 0.15209,0.252295 0.0335,0.09374 0.0479,0.193436 0.0425,0.293049 V 67.37887 c 0.009,0.792413 -0.13395,1.578966 -0.42196,2.314896 -0.26795,0.680491 -0.67486,1.294941 -1.19364,1.802388 -0.52448,0.506475 -1.14059,0.903809 -1.81393,1.169809 -0.72936,0.286856 -1.50548,0.429538 -2.28705,0.42045 -0.7816,0.0092 -1.55776,-0.133472 -2.28708,-0.42045 -0.67108,-0.26488 -1.28536,-0.660383 -1.80864,-1.164451 -0.51692,-0.506996 -0.92219,-1.120477 -1.1889,-1.799677 -0.29153,-0.737892 -0.43709,-1.527374 -0.42829,-2.322965 V 56.712626 c -0.005,-0.09961 0.009,-0.199309 0.0425,-0.293049 0.0335,-0.09374 0.0852,-0.179573 0.15213,-0.252295 0.0713,-0.0683 0.15534,-0.121122 0.24719,-0.155269 0.0918,-0.03414 0.18952,-0.0489 0.28712,-0.04338 h 0.85132 c 0.0973,-0.0053 0.19471,0.0096 0.28627,0.04371 0.0916,0.03414 0.1754,0.08685 0.24646,0.154944 0.0669,0.07272 0.11868,0.158554 0.15213,0.252295 0.0335,0.09374 0.0479,0.193437 0.0425,0.293049 v 10.666244 c -0.0277,0.909945 0.28541,1.796453 0.87559,2.479079 0.32508,0.343088 0.71951,0.609733 1.15586,0.781364 0.43632,0.171631 0.90407,0.244126 1.37064,0.212422 0.46661,0.0317 0.93436,-0.04079 1.37068,-0.212422 0.43635,-0.171631 0.83078,-0.438276 1.15586,-0.781364 0.59003,-0.683619 0.90241,-1.571194 0.87347,-2.48176 z"
             fill="#ffffff"
             id="path10-1"
             style="fill:none;fill-opacity:1;stroke:#ffffff;stroke-width:0.881867;stroke-linecap:round;stroke-linejoin:round;stroke-opacity:1;paint-order:stroke fill markers" /></g></g></g></g></svg>
