<?xml version="1.0" encoding="UTF-8" standalone="no"?>
<!-- Created with Inkscape (http://www.inkscape.org/) -->

<svg
   width="48"
   height="48"
   viewBox="0 0 12.7 12.7"
   version="1.1"
   id="svg1"
   xml:space="preserve"
   xmlns="http://www.w3.org/2000/svg"
   xmlns:svg="http://www.w3.org/2000/svg"><defs
     id="defs1"><style
       id="style1">.a{fill:none;stroke:#fff;stroke-linecap:round;stroke-linejoin:round;}</style><style
       id="style1-3">.q{fill:#fff;}.r,.s{fill:none;stroke:#fff;stroke-linecap:round;stroke-linejoin:round;}.s{stroke-width:1.0050968px;}</style><style
       id="style1-2">.q{fill:#fff;}.r,.s{fill:none;stroke:#fff;stroke-linecap:round;stroke-linejoin:round;}.s{stroke-width:1.0050968px;}</style><style
       id="style1-1">.a{fill:none;stroke:#fff;stroke-linecap:round;stroke-linejoin:round;}</style><style
       id="style1-3-9">.q{fill:#fff;}.r,.s{fill:none;stroke:#fff;stroke-linecap:round;stroke-linejoin:round;}.s{stroke-width:1.0050968px;}</style><style
       id="style1-2-4">.q{fill:#fff;}.r,.s{fill:none;stroke:#fff;stroke-linecap:round;stroke-linejoin:round;}.s{stroke-width:1.0050968px;}</style><style
       id="style1-6">.q{fill:#fff;}.r,.s{fill:none;stroke:#fff;stroke-linecap:round;stroke-linejoin:round;}.s{stroke-width:1.0050968px;}</style><style
       id="style1-8">.a{fill:none;stroke:#fff;stroke-linecap:round;stroke-linejoin:round;}</style><style
       id="style1-3-4">.q{fill:#fff;}.r,.s{fill:none;stroke:#fff;stroke-linecap:round;stroke-linejoin:round;}.s{stroke-width:1.0050968px;}</style><style
       id="style1-2-5">.q{fill:#fff;}.r,.s{fill:none;stroke:#fff;stroke-linecap:round;stroke-linejoin:round;}.s{stroke-width:1.0050968px;}</style><style
       id="style1-1-0">.a{fill:none;stroke:#fff;stroke-linecap:round;stroke-linejoin:round;}</style><style
       id="style1-3-9-3">.q{fill:#fff;}.r,.s{fill:none;stroke:#fff;stroke-linecap:round;stroke-linejoin:round;}.s{stroke-width:1.0050968px;}</style><style
       id="style1-2-4-6">.q{fill:#fff;}.r,.s{fill:none;stroke:#fff;stroke-linecap:round;stroke-linejoin:round;}.s{stroke-width:1.0050968px;}</style><style
       id="style1-6-1">.q{fill:#fff;}.r,.s{fill:none;stroke:#fff;stroke-linecap:round;stroke-linejoin:round;}.s{stroke-width:1.0050968px;}</style></defs><g
     id="g12"
     transform="matrix(0.26458333,0,0,0.26458333,-81.253698,11.806914)"
     style="stroke:#ffffff;stroke-opacity:1"><path
       style="fill:#000000;fill-opacity:0;stroke:#ffffff;stroke-width:1;stroke-linecap:round;stroke-linejoin:round;stroke-dasharray:none"
       d="m 339.42275,-0.04765884 c 0.13314,-1.48935956 0.32089,-3.58152306 0.39014,-4.70060546 0.21777,0.9490424 0.64692,2.3464003 0.65115,0.4471981 0.71453,-4.2130065 0.55504,-8.5087188 0.66278,-12.7634588 -0.12559,-1.412014 0.52003,-3.154214 1.03993,-3.98716 -1.76248,0.401896 -4.22341,-0.699925 -5.47065,0.877166 -0.0569,2.593812 0.68411,5.157946 0.51409,7.76834 0.0356,2.294988 0.10838,4.5922893 0.34577,6.8764572 1.06377,1.85454 0.88208,4.1206148 1.70027,6.0383082 0.1617,-0.12949418 0.0909,-0.39489497 0.16652,-0.55624524 z M 321.46271,-4.7029855 c 0.20799,-1.3822854 0.0946,-3.4510485 0.55469,-4.3969892 0.92923,1.5999442 0.5532,-2.1779553 0.76422,-2.7990133 0.19216,-4.326075 0.25804,-8.668391 0.46404,-12.986428 -0.31969,-2.237884 2.49175,-1.939345 4.01756,-2.288065 0.79105,-0.161558 3.37857,-0.262898 1.42554,0.350924 -2.16614,-0.02193 -4.21349,1.917197 -3.78757,4.042873 1.98775,1.365337 4.39597,0.37082 6.6269,0.550742 3.79534,-0.136272 7.61942,0.151506 11.3975,-0.205357 1.58097,-1.18846 3.87691,-0.01205 5.48128,-0.877944 -0.82527,-0.332913 -3.98653,-0.112569 -3.44795,-0.550647 1.91107,-0.106702 3.82538,-0.142103 5.73891,-0.175417 -0.99673,-0.271408 -4.97434,-0.311066 -2.14501,-0.497772 0.95878,-0.02183 4.03986,0.243572 3.52676,-0.359473 -4.78445,-0.909034 -9.69881,-0.705473 -14.54464,-0.995051 -2.29985,-0.147041 -4.64183,0.204165 -6.9055,-0.371795 1.27157,-1.098156 5.17257,-0.107464 3.78682,-2.947037 -1.41956,-1.398399 -4.16889,0.06333 -6.13683,-0.435749 -1.61037,0.196887 -3.39057,-0.07879 -4.68561,-0.870377 -0.0833,-2.641631 0.77025,-5.205421 1.12901,-7.775408 -0.67517,-2.026045 -3.11165,-1.847384 -4.57116,-2.93681 -1.93292,-1.244707 -3.21678,1.016768 -1.75209,2.473846 1.19092,2.313212 0.47036,5.18489 0.69528,7.729623 -0.77033,1.672057 -3.76665,0.329808 -5.41714,0.420533 -2.3294,-0.345658 -2.63516,2.252097 -3.83367,3.518577 -0.65791,2.117205 3.23613,0.870406 4.44633,1.111067 2.31103,-0.408898 5.70135,-0.76442 4.97359,2.585716 0.15175,5.358073 0.20595,10.732776 0.86191,16.0599065 0.86045,0.9505954 0.27416,4.0619773 1.17031,4.1984022 0.12455,-0.5137232 0.16306,-1.0457329 0.16652,-1.5728772 z m 10.47457,-2.0954837 c 1.35034,-4.1331238 0.76916,-8.5524898 1.38674,-12.7791108 2.36886,-2.090426 -1.94132,-0.920304 -3.07261,-1.201999 -3.13078,-0.340812 -0.98022,3.189009 -1.25113,4.947408 -0.0762,2.035698 1.11533,3.764664 0.88572,5.8960407 0.40888,0.5923914 0.89884,-4.5559407 1.02177,-1.6997637 0.169,0.844236 -0.31019,3.875461 0.14572,3.2062849 0.0489,-1.0745498 0.64841,-3.1815369 0.52472,-0.8399873 0.10312,0.5800108 -0.49,2.5408366 0.35907,2.4711272 z M 343.25442,-27.20539 c -1.78407,-1.667087 -1.67131,-4.319132 -1.41469,-6.538785 0.37572,-2.263509 1.45414,-6.081979 -1.85447,-6.416562 -3.41237,-1.20375 -3.3671,2.889866 -3.03623,5.12408 -0.16966,2.551065 0.6228,5.081127 0.25153,7.625049 1.75347,0.595882 4.10003,0.267695 6.0661,0.267391 z"
       id="path13" /></g></svg>
