<svg xmlns="http://www.w3.org/2000/svg" viewBox="0 0 48 48"><path style="fill-opacity:0;fill:none;stroke-linejoin:round;stroke-linecap:round;stroke:#fff" d="m23.544 39.666-1.589.037-1.739-.069a10 10 0 0 1-10-10l-.009-7.081a6.49 6.49 0 0 0 5.323 2.771 6.504 6.504 0 0 0 6.335-5.042 6.504 6.504 0 0 0 6.39 5.31 6.49 6.49 0 0 0 5.433-2.934l-.024 6.897c.563 3.572 1.918 5.605 4.037 6.019-4.677 3.243-9.335 4.053-14.157 4.092M10.207 22.553l-.007-5.77.011-1.707m0 0 .053-8.576c1.35 1.688 2.626 2.37 3.638 2.799 1.936.687 4.347.984 7.198 1.013.161.002.323.003.854.003.532 0 .694-.001.855-.003 2.851-.029 5.262-.326 7.198-1.013 1.012-.429 2.288-1.111 3.638-2.799l.056 9.032a6.5 6.5 0 0 0-5.446-2.954 6.505 6.505 0 0 0-6.335 5.042 6.5 6.5 0 0 0-6.39-5.31 6.49 6.49 0 0 0-5.319 2.766m23.49.456.008 1.251-.021 5.875"/><circle style="fill:none;stroke-linejoin:round;stroke-linecap:round;stroke:#fff" cx="16.352" cy="19.275" r="2"/><circle style="stroke-width:1px;fill:none;stroke-linejoin:round;stroke-linecap:round;stroke:#fff" cx="27.494" cy="19.275" r="2"/><path style="fill:none;stroke-linejoin:round;stroke-linecap:round;stroke:#fff" d="M12.331 40.081c.541-1.123 1.47-1.711 3.166-1.638m-.425 3.027q.796-1.638 3.103-1.764 1.302-.07 2.237 1.339M10.2 25.647l11.814 14.056M19.95 23.941l11.946 14.496m-.461-13.449 2.216 2.216M19.796 10.301l3.51 4.496m6.466-5.327 3.787 4.064"/></svg>